<?xml version="1.0" standalone="no"?>
<!DOCTYPE svg PUBLIC "-//W3C//DTD SVG 20010904//EN"
 "http://www.w3.org/TR/2001/REC-SVG-20010904/DTD/svg10.dtd">
<svg version="1.0" xmlns="http://www.w3.org/2000/svg"
 width="300.000000pt" height="300.000000pt" viewBox="0 0 300.000000 300.000000"
 preserveAspectRatio="xMidYMid meet">
<metadata>
Created by potrace 1.10, written by Peter Selinger 2001-2011
</metadata>
<g transform="translate(0.000000,300.000000) scale(0.100000,-0.100000)"
fill="#000000" stroke="none">
<path d="M1350 2994 c-101 -13 -260 -48 -338 -75 -506 -177 -879 -606 -984
-1131 -32 -161 -32 -415 0 -576 60 -298 198 -556 414 -772 210 -210 459 -345
753 -408 158 -34 414 -37 570 -8 613 114 1085 579 1207 1188 32 161 32 415 0
576 -120 598 -586 1065 -1179 1182 -105 21 -358 34 -443 24z m445 -202 c467
-118 812 -432 960 -875 128 -381 68 -821 -155 -1152 -193 -285 -460 -470 -805
-556 -116 -29 -376 -37 -510 -15 -554 91 -1000 536 -1090 1086 -19 122 -19
318 0 440 66 407 339 776 713 964 97 49 258 102 363 121 122 21 416 14 524
-13z"/>
<path d="M1420 2654 c-177 -20 -304 -56 -446 -127 -210 -106 -388 -281 -493
-487 -97 -189 -134 -337 -134 -535 -1 -313 107 -581 327 -813 l70 -73 108 108
108 108 -62 62 -62 63 -44 -43 -43 -42 -35 40 c-19 22 -59 90 -89 150 -54 109
-76 177 -93 288 l-9 57 64 0 63 0 0 90 0 90 -63 0 -64 0 9 58 c13 88 56 219
99 302 42 80 104 170 117 170 4 0 26 -18 47 -40 l39 -40 63 62 63 62 -41 42
c-23 23 -38 47 -35 53 11 17 114 85 181 119 71 36 207 78 288 90 l57 9 0 -64
0 -63 90 0 90 0 0 63 0 64 58 -9 c88 -13 219 -56 302 -99 80 -42 170 -104 170
-117 0 -4 -18 -26 -40 -47 l-40 -39 62 -63 62 -63 42 41 c23 23 47 38 53 35
17 -11 85 -114 119 -181 36 -71 78 -207 90 -287 l9 -58 -64 0 -63 0 0 -90 0
-90 63 0 64 0 -9 -57 c-17 -111 -39 -179 -93 -288 -30 -60 -70 -128 -89 -150
l-35 -40 -43 42 -44 43 -62 -63 -62 -62 108 -108 107 -107 61 62 c200 205 307
435 334 714 49 525 -269 1016 -777 1197 -121 44 -342 73 -453 61z"/>
<path d="M1748 1874 l-136 -137 -32 12 c-86 29 -201 -1 -267 -70 -65 -69 -90
-176 -62 -259 12 -32 11 -32 -90 -134 l-101 -101 62 -63 63 -62 101 101 c102
101 102 102 134 90 83 -28 190 -3 259 62 69 66 99 181 70 267 l-12 32 137 137
136 136 -63 63 -62 62 -137 -136z m-214 -298 c100 -42 38 -190 -65 -154 -67
23 -71 125 -5 154 38 16 31 16 70 0z"/>
<path d="M1090 655 l0 -85 415 0 415 0 0 85 0 85 -415 0 -415 0 0 -85z"/>
</g>
</svg>
