<?xml version="1.0" standalone="no"?>
<!DOCTYPE svg PUBLIC "-//W3C//DTD SVG 20010904//EN"
 "http://www.w3.org/TR/2001/REC-SVG-20010904/DTD/svg10.dtd">
<svg version="1.0" xmlns="http://www.w3.org/2000/svg"
 width="300.000000pt" height="300.000000pt" viewBox="0 0 300.000000 300.000000"
 preserveAspectRatio="xMidYMid meet">
<metadata>
Created by potrace 1.10, written by Peter Selinger 2001-2011
</metadata>
<g transform="translate(0.000000,300.000000) scale(0.100000,-0.100000)"
fill="#000000" stroke="none">
<path d="M1437 2967 c-18 -19 -66 -87 -109 -153 -78 -122 -169 -245 -432 -586
-199 -257 -305 -416 -381 -573 -102 -211 -135 -339 -135 -528 0 -232 59 -431
184 -619 74 -111 133 -177 233 -258 244 -196 570 -284 873 -235 555 90 950
552 950 1112 0 190 -33 318 -136 530 -77 157 -180 313 -369 558 -256 331 -380
499 -450 609 -39 61 -84 125 -101 143 -43 45 -85 45 -127 0z m149 -362 c43
-60 132 -180 198 -265 341 -440 445 -589 530 -758 102 -203 138 -371 117 -549
-47 -406 -312 -710 -713 -820 -89 -25 -347 -25 -436 0 -333 91 -576 320 -675
633 -96 303 -37 579 199 942 76 116 170 242 409 552 75 96 168 221 208 278 39
56 75 101 78 100 4 -2 42 -52 85 -113z"/>
<path d="M1105 1846 c-99 -46 -155 -127 -163 -237 -4 -53 0 -75 17 -114 45
-102 114 -159 211 -174 136 -22 263 51 310 177 37 98 18 197 -52 277 -82 93
-214 122 -323 71z m155 -171 c59 -30 68 -98 21 -146 -37 -37 -79 -38 -120 -3
-26 21 -31 33 -31 69 0 36 5 48 31 69 35 30 58 32 99 11z"/>
<path d="M1944 1683 c-11 -2 -242 -225 -512 -496 -450 -450 -492 -495 -492
-525 0 -19 5 -42 11 -54 14 -26 67 -48 100 -41 18 3 183 162 518 497 449 449
491 494 491 524 0 46 -16 71 -55 88 -19 8 -36 13 -37 13 -2 -1 -12 -4 -24 -6z"/>
<path d="M1719 926 c-92 -19 -163 -82 -199 -174 -37 -97 -18 -197 52 -277 57
-64 124 -95 208 -95 152 0 267 108 278 261 4 56 1 75 -20 120 -34 75 -70 114
-131 143 -65 30 -116 36 -188 22z m120 -202 c26 -21 31 -33 31 -69 0 -36 -5
-48 -31 -69 -35 -30 -58 -32 -99 -11 -59 30 -68 98 -21 146 37 37 79 38 120 3z"/>
</g>
</svg>
