<?xml version="1.0" standalone="no"?>
<!DOCTYPE svg PUBLIC "-//W3C//DTD SVG 20010904//EN"
 "http://www.w3.org/TR/2001/REC-SVG-20010904/DTD/svg10.dtd">
<svg version="1.0" xmlns="http://www.w3.org/2000/svg"
 width="300.000000pt" height="300.000000pt" viewBox="0 0 300.000000 300.000000"
 preserveAspectRatio="xMidYMid meet">
<metadata>
Created by potrace 1.10, written by Peter Selinger 2001-2011
</metadata>
<g transform="translate(0.000000,300.000000) scale(0.100000,-0.100000)"
fill="#000000" stroke="none">
<path d="M1275 2324 c-359 -64 -686 -270 -950 -599 -70 -86 -95 -146 -95 -225
0 -79 25 -139 95 -225 171 -213 362 -370 576 -475 195 -96 385 -140 599 -140
446 0 851 212 1175 615 70 86 95 146 95 225 0 101 -45 178 -197 343 -234 255
-544 429 -852 481 -116 20 -336 20 -446 0z m443 -190 c245 -44 468 -168 672
-373 131 -132 193 -216 193 -261 0 -45 -63 -130 -193 -260 -265 -266 -552
-393 -890 -393 -338 0 -625 127 -890 393 -130 130 -193 215 -193 260 0 40 55
119 165 234 317 336 716 476 1136 400z"/>
<path d="M1377 1954 c-207 -50 -337 -225 -337 -454 0 -165 68 -304 188 -387
87 -59 154 -78 277 -78 198 1 339 85 417 250 106 227 19 514 -191 629 -96 52
-239 68 -354 40z m219 -189 c64 -19 118 -65 152 -129 23 -44 27 -63 27 -136 0
-73 -4 -92 -27 -136 -34 -64 -88 -110 -152 -129 -143 -43 -281 9 -344 129 -23
44 -27 63 -27 136 0 73 4 92 27 136 63 120 201 172 344 129z"/>
</g>
</svg>
