<?xml version="1.0" standalone="no"?>
<!DOCTYPE svg PUBLIC "-//W3C//DTD SVG 20010904//EN"
 "http://www.w3.org/TR/2001/REC-SVG-20010904/DTD/svg10.dtd">
<svg version="1.0" xmlns="http://www.w3.org/2000/svg"
 width="300.000000pt" height="300.000000pt" viewBox="0 0 300.000000 300.000000"
 preserveAspectRatio="xMidYMid meet">
<metadata>
Created by potrace 1.10, written by Peter Selinger 2001-2011
</metadata>
<g transform="translate(0.000000,300.000000) scale(0.100000,-0.100000)"
fill="#000000" stroke="none">
<path d="M1389 2984 c-231 -41 -390 -154 -479 -339 -42 -86 -80 -232 -80 -311
0 -27 -11 -63 -32 -104 -30 -57 -33 -72 -33 -149 0 -89 15 -135 67 -201 43
-55 104 -65 143 -25 34 33 32 79 -5 134 -24 35 -30 55 -30 95 0 28 4 56 8 62
4 5 48 16 99 22 385 50 585 266 618 668 7 88 -6 133 -44 154 -27 14 -140 11
-232 -6z m95 -201 c-11 -79 -49 -188 -84 -242 -43 -66 -96 -111 -174 -147 -59
-27 -203 -60 -214 -50 -3 4 1 44 11 89 42 204 151 319 351 368 110 27 116 26
110 -18z"/>
<path d="M2470 2400 c-122 -26 -255 -132 -306 -245 -33 -71 -51 -175 -38 -211
15 -43 56 -68 98 -60 45 9 67 41 77 111 13 96 65 171 147 212 52 25 173 25
226 -1 92 -46 145 -131 146 -234 0 -101 -43 -180 -128 -229 l-47 -28 -465 -5
c-504 -5 -497 -5 -520 -61 -15 -35 -4 -75 27 -99 25 -19 42 -20 477 -20 267 0
469 5 495 11 128 29 239 120 299 246 35 74 37 83 36 178 0 79 -5 112 -23 157
-45 116 -145 216 -257 258 -65 24 -179 33 -244 20z"/>
<path d="M1133 1703 c-60 -12 -83 -104 -38 -148 23 -24 28 -25 174 -25 143 0
151 1 177 24 38 32 39 86 1 124 -27 26 -30 27 -160 29 -72 0 -142 -1 -154 -4z"/>
<path d="M39 1340 c-23 -14 -42 -65 -35 -95 3 -13 16 -34 28 -45 20 -19 35
-20 239 -20 l217 0 26 31 c36 43 31 92 -13 126 -20 15 -437 18 -462 3z"/>
<path d="M746 1328 c-38 -35 -39 -86 -1 -123 l24 -25 706 0 707 0 29 29 c31
31 36 59 17 94 -25 48 -3 46 -750 47 l-707 0 -25 -22z"/>
<path d="M275 976 c-31 -31 -33 -84 -6 -117 l19 -24 814 -5 813 -5 58 -29 c99
-48 156 -150 144 -260 -13 -128 -109 -222 -237 -233 -67 -6 -117 8 -177 49
-56 38 -90 99 -108 189 -19 100 -58 130 -128 98 -39 -18 -50 -50 -45 -123 12
-139 112 -283 242 -346 126 -61 253 -61 382 -1 171 80 275 276 245 458 -25
148 -115 267 -250 332 l-76 36 -833 3 -832 2 -25 -24z"/>
<path d="M495 615 c-42 -41 -34 -83 26 -149 l51 -56 -257 0 -257 0 -29 -29
c-48 -48 -36 -111 26 -137 27 -11 90 -14 276 -14 l242 0 -52 -54 c-62 -67 -67
-101 -21 -148 27 -26 36 -30 68 -25 30 5 58 28 160 129 126 125 152 160 152
199 0 15 -45 68 -142 166 -134 135 -144 143 -181 143 -27 0 -45 -7 -62 -25z"/>
</g>
</svg>
